<?xml version="1.0" encoding="utf-8"?>
<!-- Generator: Adobe Illustrator 19.1.0, SVG Export Plug-In . SVG Version: 6.00 Build 0)  -->
<svg version="1.1" id="cardboard" xmlns="http://www.w3.org/2000/svg" xmlns:xlink="http://www.w3.org/1999/xlink" x="0px" y="0px"
	 viewBox="-298 181 427 407" style="enable-background:new -298 181 427 407;" xml:space="preserve">
<style type="text/css">
	.st0{fill:#C48A55;stroke:#000000;stroke-miterlimit:10;}
	.st1{fill:none;}
	.st2{fill:#B5A89C;}
	.st3{fill:#62554C;}
	.st4{fill:#FF93A5;}
	.st5{fill:#FFFFFF;}
	.st6{fill:#C99252;stroke:#000000;stroke-miterlimit:10;}
</style>
<g>
	<polygon id="back-flap" class="st0" points="40,271.7 91.3,236 -36,253.8 -46,259.5 	"/>
	<g id="cat">
		<g id="body">
			<path class="st1" d="M-85.7,307.9c-0.1-0.2-0.3-0.3-0.5-0.2c-0.1,0-0.1,0.1-0.2,0.1C-86,307.8-85.7,307.8-85.7,307.9z"/>
			<path class="st1" d="M-86.3,307.8h-0.1C-86.9,308-87.2,308.5-86.3,307.8z"/>
			<path class="st2" d="M-48.9,549.4c-0.4,0-1.1,0-1.1,0v15.9c0,0,1.1,0,1.4,0c3.8-0.1,7.6-0.2,11.5-0.6l-1.5-16.2
				C-42.2,548.9-45.5,549.1-48.9,549.4z"/>
			<path class="st2" d="M-27.2,546.8l2.7,15.7c2.4-0.6,4.7-1.3,6.9-2.1c1.8-0.6,3.4-1.4,5-2.2l-7.3-13.3
				C-22.3,545.7-24.7,546.3-27.2,546.8z"/>
			<path class="st2" d="M18.9,443.3c-9.2,1.4-17.7-2.7-19.9-10c-2.2-7.2,2.5-15.2,10.7-19.2c-0.7-1.3-1.4-2.6-2.2-3.9
				c-0.7,0.3-1.5,0.6-2.3,0.8c-10.4,3.1-20.8-1-23.3-9.3c-1.9-6.2,1.3-12.9,7.3-17.2c-6-7.5-12.4-14.6-19.1-21.5
				c-7.3-7.5-11.6-17.9-15.7-27.4c-1.1-2.5-2.1-5-3-7.5c-1.9-5-3.5-10.1-5.1-15.3c-0.8-2.6-1.5-5.2-2.3-7.7
				c-0.4-1.2-0.8-2.5-1.1-3.7c-0.3-1.3-0.6-2.6-1-3.9c-0.1-0.2-0.1-0.4-0.3-0.5c-0.1,0-0.2,0-0.3,0c-1,0-2.1,0.5-2.9,1.1
				c-0.4,0.3-0.7,0.8-1.1,1c-0.5,0.3-1.1,0.7-1.6,1c-2.2,1.4-4.4,2.9-6.5,4.3c-4.3,2.9-8.7,6.8-13.4,9c-0.6,0.3-1.4,0.5-2.2,0.5
				c0,0.4-0.1,0.8-0.1,1.2c-0.8,5.2-3.5,9.1-6.1,8.7c-2.6-0.4-4-4.9-3.2-10.1c0-0.2,0.1-0.4,0.1-0.6c-2.3-0.2-4.5-0.4-6.8-0.5
				c0.1,1.1,0,2.2-0.1,3.4c-0.8,5.2-4,9-7.1,8.5s-5-5.1-4.2-10.3c0.1-0.9,0.4-1.7,0.6-2.5c-2.7-0.2-5.4-0.4-8.1-0.6
				c-0.9,4.8-3.5,8.2-6,7.9c-2.5-0.4-4-4.8-3.3-9.8c-3.4-2.8-5.7-8.6-7.8-11.9c-2.2-3.3-4.1-6.8-6.7-9.7c-1.6-1.7-2-2-3.9-0.8
				c-2,1.2-3.9,2.7-5.6,4.2c-4.2,3.7-7.1,8.8-10.1,13.5c-3.5,5.3-6.7,10.7-9.9,16.2c-6.2,10.8-12.2,21.8-17.6,33
				c-18.8,38.6-30.5,80.9-27.3,124.1c1,14.1,3.6,28.2,8.1,41.7c1.6,4.9,3.3,10.3,6.6,14.4c4.1,5.1,9.9,8.7,15.7,11.7
				c11.5,6,24.6,10.2,37.5,11.9c8.1,1.1,16.5,0.6,24.6,0.7c18.5,0.2,36.9,0.3,55.4,0.5c0.1-2.8,0.6-5.7,1.8-8.2
				c2.8-5.9,7.9-6.6,13.8-6.8c7.6-0.2,15.2-1,22.7-2.3c7.4-1.2,15.3-2.7,21.9-6.6c2.8-1.6,5.4,1.7,4.2,4l5.5,11.4
				c6.5-6.3,11.5-14.2,16.5-21.9c5.3-8.3,6.1-19.1,6.7-28.7c0.9-13.3,0.5-26.8-0.7-40.1C20.4,454.2,19.8,448.7,18.9,443.3z"/>
			<path class="st3" d="M-109.6,324.5c3.1,0.5,6.3-3.3,7.1-8.5c0.2-1.2,0.2-2.3,0.1-3.4c-3.6-0.3-7.2-0.6-10.8-0.8
				c-0.3,0.8-0.5,1.6-0.6,2.5C-114.6,319.5-112.7,324.1-109.6,324.5z"/>
			<path class="st3" d="M-18,401.7c2.5,8.2,12.9,12.4,23.3,9.3c0.8-0.2,1.5-0.5,2.3-0.8c-4.5-7.8-9.9-15.1-15.3-22
				c-1-1.2-1.9-2.5-2.9-3.7C-16.7,388.8-19.8,395.5-18,401.7z"/>
			<path class="st3" d="M-92.4,323.9c2.6,0.4,5.3-3.5,6.1-8.7c0.1-0.4,0.1-0.8,0.1-1.2c-2.8,0.3-6.2-0.6-8.5-0.8
				c-0.3,0-0.6,0-0.9-0.1c0,0.2-0.1,0.4-0.1,0.6C-96.4,319-95,323.5-92.4,323.9z"/>
			<path class="st3" d="M-127.2,319c2.4,0.4,5-3.1,6-7.9c-1.9-0.1-3.8-0.3-5.7-0.4c-0.3,0-0.7,0-1.1-0.1c-0.9-0.3-1.7-0.8-2.4-1.4
				C-131.2,314.3-129.7,318.6-127.2,319z"/>
			<path class="st3" d="M-1,433.3c2.2,7.4,10.7,11.4,19.9,10c-0.9-6-2.2-11.9-4.2-17.6c-1.4-4-3.1-7.8-5-11.6
				C1.5,418.1-3.2,426-1,433.3z"/>
			<path class="st3" d="M-8.4,540.1c-3.5,2.1-7.4,3.6-11.5,4.8l7.3,13.3c4.1-2.1,7.7-4.8,10.9-8l-5.5-11.4
				C-7.5,539.4-7.8,539.8-8.4,540.1z"/>
			<path class="st3" d="M-38.8,548.5l1.6,16.2c4.3-0.4,8.6-1.1,12.7-2.1l-2.7-15.7C-31.1,547.5-35,548.1-38.8,548.5z"/>
			<path class="st3" d="M-63.8,552.4c-1.5,2.4-1.8,5.6-1.6,8.5c0.1,0.3,0.1,0.6,0,0.9c0,0.1,0.2,0.2,0.2,0.4
				c0.4,2.9,10.2,3.2,15.2,3.2v-15.9C-55,549.5-61.5,548.7-63.8,552.4z"/>
			<path d="M28,482.3c-0.2-17.8-1.4-36.3-6-53.5c-5-18.8-17.5-35.2-29.6-50c-5.1-6.3-10.5-12.4-16-18.2c-4.8-5-8.2-10.5-11.3-16.7
				c-4.9-9.7-8.8-19.5-11.9-29.9c-1.8-5.8-3.4-11.7-5.3-17.5c-1.4-4.3-7.4-6.3-11.2-4.1c-5.7,3.3-11,7.2-16.4,10.9
				c-1.1,0.8-2.3,1.5-3.5,2.2c-0.6,0.4-1.2,0.8-1.7,1.2c-0.4,0.3-0.9,0.8-1.3,1.1c-0.2,0.1-0.6,0.1-0.8,0.1c-2-0.2-4-0.5-6-0.8
				c-2-0.2-4.1-0.4-6.1-0.6c-4.1-0.3-8.2-0.5-12.3-0.8c-4.1-0.2-8.2-0.4-12.2-0.8c-0.8-0.1-1.6-0.1-2.4-0.2
				c-0.2-0.2-0.6-0.4-0.7-0.7c-0.4-0.7-0.9-1.3-1.3-1.9c-0.9-1.4-1.8-2.9-2.7-4.3c-1.4-2.2-2.8-4.4-4.3-6.6c-3.2-5-8-13.8-15.2-10.5
				c-8,3.6-13.2,11.2-17.9,18.3c-6.7,10.1-12.7,20.7-18.6,31.4c-21.9,39.9-38.5,83.1-39.3,129.1c-0.3,17,1.5,34.2,5.6,50.7
				c2.8,11.3,6.1,23.9,15.1,31.9c10.9,9.7,25.7,15.1,39.6,18.8c9.1,2.4,17.8,3.2,27.2,3.4c22.5,0.3,44.9,0.5,67.4,0.6
				c1.9,5,10.8,6,15.1,6.3c12.1,1,25.5-0.5,37.1-3.9c18.6-5.4,31.4-21.5,40.3-38c3.2-5.9,4.3-12.8,5.2-19.4
				C27.8,500.7,28.1,491.5,28,482.3z M21.5,499.7c-0.6,9.6-1.4,20.4-6.7,28.7c-5,7.7-10,15.6-16.5,21.9c-3.2,3.1-6.8,5.8-10.9,8
				c-1.6,0.8-3.3,1.6-5,2.2c-2.2,0.8-4.6,1.5-6.9,2.1c-4.2,1-8.4,1.7-12.7,2.1c-3.9,0.4-7.8,0.6-11.6,0.6c-0.3,0-0.8,0-1.6,0
				c-4.3,0-14.6-0.2-15-3.2c0-0.1,0-0.2,0-0.4c0-0.3,0-0.6-0.1-0.9c-0.2-2.8,0-6.1,1.5-8.5c2.3-3.7,9.2-2.9,13.6-3
				c0.5,0,0.9,0,1.3,0c3.3-0.3,6.7-0.5,10.2-0.9c3.9-0.4,7.8-1,11.6-1.7c2.5-0.5,4.9-1.1,7.3-1.8c4.1-1.2,7.9-2.8,11.5-4.8
				c0.6-0.3,0.9-0.8,1.2-1.2c1.2-2.3-1.4-5.7-4.2-4c-6.6,3.8-14.5,5.3-21.9,6.6c-7.5,1.3-15.1,2-22.7,2.3c-5.9,0.2-11,0.9-13.8,6.8
				c-1.2,2.5-1.7,5.4-1.8,8.2c-18.5-0.1-36.9-0.2-55.4-0.5c-8.1-0.1-16.6,0.4-24.6-0.7c-12.8-1.7-26-6-37.5-11.9
				c-5.8-3-11.5-6.6-15.7-11.7c-3.3-4.1-5-9.4-6.6-14.4c-4.4-13.5-7-27.6-8.1-41.7c-3.2-43.2,8.5-85.5,27.3-124.1
				c5.5-11.2,11.5-22.2,17.6-33c3.1-5.5,6.4-10.9,9.9-16.2c3-4.6,5.9-9.8,10.1-13.5c1.7-1.5,3.6-3.1,5.6-4.2c2-1.2,2.4-0.9,3.9,0.8
				c2.7,2.9,4.6,6.5,6.7,9.7c2.1,3.2,4.4,9,7.8,11.9c0.8,0.6,1.6,1.1,2.4,1.4c0.4,0.1,0.7,0.1,1.1,0.1c1.9,0.1,3.8,0.3,5.7,0.4
				c2.7,0.2,5.4,0.4,8.1,0.6c3.6,0.3,7.2,0.6,10.8,0.8c2.3,0.2,4.5,0.4,6.8,0.5c0.3,0,0.6,0,0.9,0.1c2.3,0.2,5.7,1,8.5,0.8
				c0.8-0.1,1.5-0.2,2.2-0.5c4.7-2.2,9.1-6.1,13.4-9c3-2,5.9-4,8.9-5.9c0.6-0.4,1.2-0.9,1.8-1.2s1.1-0.1,1.6,0.3
				c0.2,0.1,0.2,0.3,0.3,0.5c0.4,1,0.4,2,0.8,3c0.5,1.3,1,2.6,1.4,3.9c0.8,2.6,1.5,5.2,2.3,7.7c1.6,5.1,3.2,10.3,5.1,15.3
				c0.9,2.5,2,5,3,7.5c4.1,9.4,8.4,19.9,15.7,27.4c6.7,6.9,13,14.1,19.1,21.5c1,1.2,2,2.4,2.9,3.7c5.4,6.9,10.8,14.2,15.3,22
				c0.7,1.3,1.5,2.6,2.2,3.9c2,3.8,3.7,7.6,5,11.6c1.9,5.7,3.2,11.6,4.2,17.6c0.9,5.4,1.4,10.9,1.9,16.3
				C22,472.9,22.4,486.3,21.5,499.7z"/>
			<path d="M-86.2,307.6c-0.1,0-0.2,0.1-0.3,0.1h0.1C-86.3,307.7-86.2,307.7-86.2,307.6z"/>
		</g>
		<g id="left-whisker2">
			<path d="M-206.1,331.2c1.7,0.6,16.2,4.7,25.3,8.8"/>
			<g>
				<path d="M-207.1,334.8c8.2,2.7,16.5,5,24.4,8.4c4.4,1.9,8.2-4.6,3.8-6.5c-8.5-3.7-17.4-6.3-26.2-9.2
					C-209.7,326.1-211.7,333.3-207.1,334.8L-207.1,334.8z"/>
			</g>
		</g>
		<g id="left-whisker1">
			<path d="M-199.7,315.8c1.6,0.8,15.4,6.9,23.9,12.1"/>
			<g>
				<path d="M-201.6,319c8,3.9,16.2,7.5,23.9,12.1c4.1,2.5,7.9-4,3.8-6.5c-7.7-4.7-15.8-8.2-23.9-12.1
					C-202.1,310.4-206,316.9-201.6,319L-201.6,319z"/>
			</g>
		</g>
		<g id="right-whisker2">
			<path d="M-20.4,345.8c-1.8,0.3-16.7,1.9-26.4,4.4"/>
			<g>
				<path d="M-21.4,342.2c-7.8,1.1-18,2.3-26.4,4.4c-4.7,1.1-2.7,8.4,2,7.2c8.7-2.1,17.6-3.1,26.4-4.4
					C-14.7,348.8-16.7,341.5-21.4,342.2L-21.4,342.2z"/>
			</g>
		</g>
		<g id="right-whisker1">
			<path d="M-24.1,329.6c-1.7,0.5-16.3,4.2-25.6,7.9"/>
			<g>
				<path d="M-25.1,325.9c-8.6,2.5-17.3,4.6-25.6,7.9c-4.4,1.7-2.5,9,2,7.2c8.3-3.3,17-5.4,25.6-7.9
					C-18.5,331.8-20.4,324.6-25.1,325.9L-25.1,325.9z"/>
			</g>
		</g>
		<g id="mouth">
			<path class="st4" d="M-106.1,349.1c-1.8,3.7-3.1,9.3-8.1,9.2c-5.1-0.2-6.6-5.9-7.3-10c-0.1-0.6,0.1-1.2,0.6-1.6
				c0.5-0.4,1.1-0.5,1.8-0.7c1.6-0.4,3.1-1,4.4-1.8c0.5-0.3,1.1-0.6,1.6-0.3c0.2,0.1,0.3,0.3,0.4,0.5c0.5,0.8,1.2,1.4,2,1.9
				c0.8,0.4,1.7,0.6,2.5,1s1.6,0.9,2,1.7"/>
			<g>
				<path d="M-108.3,347.8c-1.2,2.7-3.7,10.8-8,7.1c-1.4-1.2-2.3-3.8-2.4-5.6c-0.1-1.1-0.2-0.6,0.3-0.9c0.4-0.3,1.3-0.4,1.8-0.6
					c1-0.4,2.5-1.5,3.5-1.4c-0.6-0.2-1.2-0.5-1.8-0.7c0.8,1,1.5,1.8,2.6,2.5s3.3,1,4,2.1c1.8,2.6,6.2,0.1,4.3-2.5
					c-1.8-2.6-4.8-2.9-7-5.1c-2.4-2.4-4.4-0.7-7.1,0.3c-2.4,0.9-5.2,1.1-5.9,4.1c-0.5,2.1,0.5,5.1,1.3,7.1c1.7,4.3,5.6,7.6,10.4,6.4
					c4.8-1.2,6.3-6.2,8.1-10.2C-102.6,347.5-106.9,344.9-108.3,347.8L-108.3,347.8z"/>
			</g>
		</g>
		<ellipse id="nose-area" class="st2" cx="-113.9" cy="341.2" rx="16.3" ry="10.5"/>
		<g id="nose">
			<g>
				<path class="st2" d="M-127.2,342.8c0,0,8.2,11.9,13.1-2.2"/>
				<g>
					<path d="M-130.5,344.7c1.8,2.6,4.4,5.1,7.5,6.1c6.6,2.1,10.5-3.9,12.4-9.2c1.7-4.5-5.6-6.5-7.2-2c-0.5,1.4-1.4,3.4-2.4,4.1
						c-0.1,0.1-0.5,0-0.1,0.1c-0.8-0.2-0.4,0-1.2-0.5c-0.7-0.4-1.1-0.8-1.9-1.7c-0.3-0.3-0.6-0.6-0.8-1c0.2,0.2,0.5,0.7,0.2,0.3
						C-126.7,337-133.2,340.7-130.5,344.7L-130.5,344.7z"/>
				</g>
			</g>
			<g>
				<path class="st2" d="M-114.1,340.7c3.3,14.5,12.8,3.6,12.8,3.6"/>
				<g>
					<path d="M-117.8,341.6c1.3,5.5,5,11.6,11.6,10c2.8-0.7,5.5-2.6,7.5-4.8c3.2-3.6-2.1-9-5.3-5.3c-0.4,0.4-0.8,0.8-1.2,1.2
						c-0.2,0.2-0.4,0.3-0.5,0.5c-0.3,0.3,0.5-0.3-0.1,0.1c-0.5,0.4-1,0.7-1.6,1c0.3-0.1-0.8,0.2-0.7,0.2c0,0,0,0.2-0.3-0.1
						c-0.9-0.7-1.7-3.1-2.1-4.7C-111.7,335-118.9,337-117.8,341.6L-117.8,341.6z"/>
				</g>
			</g>
		</g>
		<g id="left-foot">
			<path class="st2" d="M-159.1,548.8c-0.1,6,2.9,16.7,9.3,18.9c9.4,3.3,11.2-10.6,12-16.7"/>
			<g>
				<path d="M-162.8,548.8c0,9.2,4.9,23.9,16.4,23.1c9.8-0.7,11.4-13.4,12.4-20.9c0.6-4.8-6.9-4.7-7.5,0c-0.4,3.3-1,12.4-5.2,13.4
					c-6.4,1.6-8.7-11.7-8.7-15.6C-155.3,544-162.8,544-162.8,548.8L-162.8,548.8z"/>
			</g>
		</g>
		<g id="right-foot">
			<path class="st2" d="M-81.1,550.4c0.1,6-2.9,16.7-9.3,18.9c-9.4,3.3-11.2-10.6-12-16.7"/>
			<g>
				<path d="M-84.8,550.4c0,3.9-2.3,17.3-8.7,15.6c-4.1-1.1-4.7-10.1-5.2-13.4c-0.6-4.7-8.1-4.8-7.5,0c1,7.5,2.6,20.3,12.4,20.9
					c11.5,0.8,16.4-13.9,16.4-23.1C-77.3,545.6-84.8,545.6-84.8,550.4L-84.8,550.4z"/>
			</g>
		</g>
		<g id="heart">
			<path class="st4" d="M-85.9,266.7c-1.9-11.1-12.2-1.9-17.4,0.9c-1.2,0.7-2.6,0.4-3.7-0.5c-2.6-2.2-5.6-4.5-8.9-5.5
				c-5.8-1.8-7.6,3.6-7.5,8.4c0.2,5.6,4.3,9.1,8.5,12.2c3.3,2.5,6.7,4.9,10.3,6.9l0,0C-96.4,284.3-84,277.9-85.9,266.7z"/>
			<path d="M-80.6,263.1c-1.8-5.4-6.5-8.7-12.2-7.7c-4.6,0.8-8.1,3.6-11.8,6c-4-3.2-8.9-6.3-14-6.2c-7.5,0.1-10.6,7.4-10.8,13.9
				c-0.2,8,4.6,13.2,10.6,17.8c3.7,2.8,7.6,5.8,11.7,7.9c2.3,1.2,3.6,0.8,5.7-0.3C-90.2,287.7-75.5,278.4-80.6,263.1z M-104.5,289.3
				L-104.5,289.3c-3.7-2-7.1-4.4-10.4-6.9c-4.2-3.2-8.3-6.6-8.5-12.2c-0.2-4.8,1.7-10.2,7.5-8.4c3.3,1,6.3,3.3,8.9,5.5
				c1.1,0.9,2.4,1.2,3.7,0.5c5.2-2.9,15.5-12,17.4-0.9C-84,277.9-96.4,284.3-104.5,289.3z"/>
		</g>
		<g id="eyes">
			<path d="M-157.9,339.6c0.8,3.3,3.8,5.8,7.4,5.8c3.1,0,5.8-1.8,7-4.5l0.3-0.6l-14.8-1.3L-157.9,339.6z"/>
			<path d="M-150.5,330.2c-3.1,0-5.8,1.9-7,4.6l-0.3,0.6l14.8,1.3l-0.2-0.7C-143.9,332.8-147,330.2-150.5,330.2z"/>
			<path d="M-83.3,346.4c0.8,3.3,3.8,5.9,7.5,5.9c3.2,0,5.9-1.9,7.2-4.6l0.3-0.7l-15.1-1.3L-83.3,346.4z"/>
			<path d="M-68.2,343c-0.6-3.6-3.8-6.3-7.6-6.3c-3.3,0-6.1,2-7.3,4.9l-0.3,0.6l15.2,1.4L-68.2,343z"/>
		</g>
		<g id="blink_1_">
			<polygon class="st1" points="-157,339.5 -144.1,340.6 -157.4,339.4 			"/>
			<path d="M-143.2,335.8h-0.4l-13.4-1.2h-0.4l-0.1,0.3c-0.4,0.9-0.6,1.9-0.6,3c0,0.6,0.1,1.2,0.2,1.7l0.1,0.4l0.6,0.1l13.5,1.2
				l0.1-0.3c0.4-0.9,0.6-2,0.6-3c0-0.6-0.1-1.1-0.2-1.7L-143.2,335.8z M-157,339.5h-0.4l13.4,1.2L-157,339.5z"/>
			<path d="M-68.1,343l-0.1-0.4h-0.4l-14.3-1.3l-0.1,0.3c-0.4,0.9-0.6,1.9-0.6,2.9c0,0.6,0.1,1.2,0.2,1.8l0.1,0.3l14.4,1.3l0.1-0.3
				c0.4-1,0.7-2,0.7-3.1C-68,344-68,343.4-68.1,343z"/>
		</g>
	</g>
	<polygon class="st5" points="-239.9,441 -106.9,489 42,457 42,588 -240,588 	"/>
	<g id="box">
		<polygon class="st6" points="-239.5,281 -239.5,441 -106.5,489 -106.5,251 		"/>
		<g>
			<polygon class="st6" points="42.5,457 42.5,274 -106.5,251 -106.5,489 			"/>
		</g>
	</g>
	<polygon id="side-flap" class="st6" points="-106.5,251 -164,191 -288.7,245 -239.5,281 	"/>
	<polygon id="front-flap" class="st6" points="-106.5,251 -43.3,301 112.7,305 40,271.7 	"/>
</g>
</svg>
