<svg xmlns="http://www.w3.org/2000/svg" xmlns:xlink="http://www.w3.org/1999/xlink" version="1.1" id="cat" x="0" y="0" viewBox="0 0 333.6 405.1" xml:space="preserve" enable-background="new 0 0 333.6 405.1"><style type="text/css">
	.st0{fill:none;}
	.st1{fill:#B5A89C;}
	.st2{fill:#62554C;}
	.st3{fill:#FF93A5;}
</style><g id="body"><path class="st0" d="M177.4 67.7c-0.2-0.3-0.4-0.3-0.7-0.3 -0.1 0.1-0.1 0.1-0.2 0.2C177 67.6 177.4 67.7 177.4 67.7z"/><path class="st0" d="M176.6 67.6c-0.1 0-0.1 0-0.2 0C175.9 68 175.5 68.5 176.6 67.6z"/><path class="st1" d="M222.7 366.2c-0.5 0-1.1 0.1-1.7 0.1v19.6c0.9 0 1.6 0 1.9 0 4.7-0.1 9.5-0.3 14.3-0.8l-1.9-20C231 365.5 226.7 365.9 222.7 366.2z"/><path class="st1" d="M249.7 363l3.3 19.5c2.9-0.7 5.8-1.5 8.6-2.5 2.2-0.8 4.2-1.7 6.2-2.7l-9-16.4C255.8 361.6 252.7 362.3 249.7 363z"/><path class="st1" d="M306.7 235.1c-11.3 1.7-21.9-3.3-24.6-12.4 -2.7-8.9 3.1-18.8 13.2-23.7 -0.9-1.6-1.7-3.3-2.7-4.9 -0.9 0.4-1.8 0.7-2.8 1 -12.8 3.9-25.7-1.3-28.7-11.5 -2.3-7.6 1.6-15.9 9.1-21.2 -7.4-9.2-15.3-18.1-23.5-26.6 -9-9.3-14.3-22.2-19.4-33.8 -1.3-3.1-2.6-6.1-3.7-9.3 -2.3-6.2-4.4-12.5-6.3-18.9 -1-3.2-1.9-6.4-2.9-9.6 -0.5-1.5-1-3.1-1.3-4.6 -0.4-1.6-0.8-3.2-1.2-4.9 -0.1-0.2-0.2-0.5-0.4-0.6 -0.1 0-0.2 0-0.3 0 -1.3 0.1-2.6 0.6-3.6 1.4 -0.5 0.4-0.8 0.9-1.4 1.3 -0.7 0.4-1.3 0.9-2 1.3 -2.7 1.8-5.4 3.6-8.1 5.4 -5.3 3.5-10.7 8.4-16.5 11.1 -0.8 0.4-1.7 0.6-2.7 0.7 0 0.5-0.1 1-0.2 1.5 -1 6.4-4.4 11.2-7.6 10.7 -3.2-0.5-5-6.1-4-12.5 0-0.3 0.1-0.5 0.1-0.7 -2.8-0.2-5.6-0.4-8.4-0.7 0.1 1.3 0 2.7-0.2 4.2 -1 6.4-4.9 11.1-8.7 10.5 -3.8-0.6-6.2-6.3-5.2-12.7 0.2-1.1 0.4-2.1 0.8-3.1 -3.3-0.3-6.7-0.5-10-0.8 -1.2 5.9-4.4 10.2-7.4 9.7 -3.1-0.5-4.9-5.9-4-12.1 -4.2-3.5-7-10.7-9.7-14.7 -2.7-4-5-8.4-8.3-12 -1.9-2.1-2.4-2.4-4.9-1 -2.4 1.4-4.8 3.4-6.9 5.2 -5.1 4.6-8.7 10.9-12.5 16.6 -4.3 6.6-8.3 13.3-12.2 20.1 -7.6 13.4-15.1 26.9-21.8 40.7 -23.2 47.7-37.7 99.9-33.8 153.3 1.3 17.5 4.5 34.9 10 51.5 2 6.1 4 12.7 8.1 17.8 5.1 6.3 12.3 10.8 19.4 14.5 14.2 7.4 30.4 12.6 46.3 14.7 10 1.3 20.4 0.7 30.4 0.8 22.8 0.3 45.6 0.4 68.5 0.6 0.1-3.5 0.8-7 2.2-10.1 3.4-7.3 9.7-8.2 17-8.4 9.4-0.3 18.8-1.2 28.1-2.8 9.2-1.5 19-3.4 27.1-8.1 3.5-2 6.7 2.1 5.2 5l6.8 14.1c8-7.8 14.2-17.5 20.3-27.1 6.5-10.2 7.5-23.7 8.3-35.5 1.1-16.5 0.6-33.1-0.8-49.5C308.4 248.6 307.7 241.8 306.7 235.1z"/><path class="st2" d="M147.9 88.4c3.8 0.6 7.8-4.1 8.7-10.5 0.2-1.4 0.3-2.9 0.2-4.2 -4.4-0.3-8.9-0.7-13.3-1 -0.3 1-0.6 2-0.8 3.1C141.7 82.1 144 87.8 147.9 88.4z"/><path class="st2" d="M261.1 183.7c3.1 10.2 15.9 15.3 28.7 11.5 1-0.3 1.9-0.6 2.8-1 -5.5-9.6-12.2-18.6-18.9-27.1 -1.2-1.5-2.4-3-3.6-4.5C262.6 167.8 258.8 176.1 261.1 183.7z"/><path class="st2" d="M169.1 87.5c3.2 0.5 6.6-4.3 7.6-10.7 0.1-0.5 0.1-1 0.2-1.5 -3.4 0.3-7.6-0.7-10.5-0.9 -0.4 0-0.7-0.1-1.1-0.1 0 0.2-0.1 0.5-0.1 0.7C164.1 81.5 165.9 87.1 169.1 87.5z"/><path class="st2" d="M126.1 81.5c3 0.5 6.2-3.8 7.4-9.7 -2.3-0.2-4.7-0.4-7-0.5 -0.4 0-0.9 0-1.3-0.2 -1.1-0.3-2.1-0.9-3-1.7C121.2 75.7 123 81.1 126.1 81.5z"/><path class="st2" d="M282.1 222.7c2.7 9.1 13.3 14.1 24.6 12.4 -1.2-7.4-2.8-14.7-5.2-21.7 -1.7-4.9-3.8-9.7-6.2-14.3C285.1 203.9 279.4 213.8 282.1 222.7z"/><path class="st2" d="M272.9 354.7c-4.4 2.6-9.2 4.5-14.2 6l9 16.4c5.1-2.6 9.5-6 13.4-9.8l-6.8-14.1C274.1 353.8 273.6 354.3 272.9 354.7z"/><path class="st2" d="M235.3 365.1l1.9 20c5.3-0.5 10.6-1.4 15.7-2.6l-3.3-19.5C244.9 363.9 240.1 364.6 235.3 365.1z"/><path class="st2" d="M204.2 369.9c-1.8 2.9-2.1 7-1.8 10.5 0.1 0.4 0.1 0.7 0.1 1.1 0 0.2 0 0.3 0 0.5 0.5 3.6 13.3 3.9 18.6 3.9v-19.6C215.5 366.3 207 365.3 204.2 369.9z"/><path d="M317.9 283.3c-0.2-22-1.7-44.8-7.4-66.2 -6.2-23.2-21.6-43.5-36.5-61.8 -6.3-7.7-12.9-15.3-19.8-22.5 -5.9-6.2-10.1-13-13.9-20.7 -6-12-10.8-24.1-14.7-36.9 -2.2-7.2-4.2-14.5-6.5-21.7 -1.7-5.3-9.1-7.8-13.8-5 -7 4.1-13.6 8.9-20.3 13.4 -1.4 1-2.9 1.8-4.3 2.7 -0.7 0.5-1.4 0.9-2.1 1.4 -0.6 0.4-1.1 1-1.7 1.3 -0.3 0.2-0.7 0.1-1 0.1 -2.5-0.2-4.9-0.7-7.4-0.9 -2.5-0.3-5-0.5-7.6-0.7 -5.1-0.4-10.1-0.7-15.2-0.9 -5-0.3-10.1-0.6-15.1-0.9 -1-0.1-2-0.2-2.9-0.2 -0.2-0.2-0.7-0.5-0.9-0.8 -0.5-0.8-1.1-1.6-1.7-2.4 -1.2-1.8-2.3-3.6-3.4-5.3 -1.7-2.8-3.5-5.5-5.3-8.2 -4-6.2-9.9-17-18.8-13C87.7 38.6 81.2 48 75.4 56.7c-8.3 12.5-15.7 25.6-22.9 38.8C25.5 144.8 4.9 198.2 4 255.1c-0.4 21 1.8 42.2 6.9 62.6 3.5 14 7.5 29.5 18.6 39.4 13.5 12 31.8 18.7 48.9 23.2 11.2 2.9 22 4 33.6 4.1 27.8 0.4 55.5 0.6 83.3 0.7 2.4 6.1 13.4 7.4 18.7 7.8 15 1.2 31.5-0.6 45.9-4.8 23-6.7 38.8-26.6 49.8-47 3.9-7.3 5.3-15.9 6.4-24C317.6 306 318 294.7 317.9 283.3zM309.8 304.8c-0.8 11.8-1.8 25.2-8.3 35.5 -6.1 9.6-12.4 19.3-20.3 27.1 -4 3.9-8.4 7.2-13.4 9.8 -2 1-4 1.9-6.2 2.7 -2.8 1-5.6 1.8-8.6 2.5 -5.1 1.3-10.4 2.1-15.7 2.6 -4.8 0.5-9.6 0.7-14.3 0.8 -0.4 0-1 0-1.9 0 -5.3 0-18.1-0.3-18.6-3.9 0-0.2 0-0.3 0-0.5 0.1-0.4 0-0.8-0.1-1.1 -0.3-3.5 0-7.5 1.8-10.5 2.8-4.6 11.4-3.6 16.8-3.7 0.6 0 1.2 0 1.7-0.1 4.1-0.3 8.3-0.6 12.6-1.1 4.8-0.5 9.6-1.2 14.4-2.1 3.1-0.6 6.1-1.3 9-2.2 5-1.5 9.8-3.4 14.2-6 0.7-0.4 1.2-0.9 1.4-1.5 1.4-2.9-1.8-7-5.2-5 -8.1 4.7-17.9 6.6-27.1 8.1 -9.3 1.6-18.7 2.5-28.1 2.8 -7.3 0.2-13.6 1.1-17 8.4 -1.4 3.1-2.1 6.6-2.2 10.1 -22.8-0.1-45.6-0.3-68.5-0.6 -10-0.1-20.5 0.5-30.4-0.8 -15.9-2.1-32.1-7.4-46.3-14.7 -7.1-3.7-14.3-8.2-19.4-14.5 -4.1-5.1-6.1-11.7-8.1-17.8 -5.5-16.6-8.7-34.1-10-51.5 -3.9-53.4 10.5-105.6 33.8-153.3 6.7-13.8 14.2-27.4 21.8-40.7 3.9-6.8 7.9-13.5 12.2-20.1 3.7-5.7 7.3-12.1 12.5-16.6 2.1-1.9 4.4-3.8 6.9-5.2 2.4-1.4 2.9-1.1 4.9 1 3.3 3.6 5.6 8 8.3 12 2.7 4 5.5 11.2 9.7 14.7 0.9 0.8 1.9 1.4 3 1.7 0.5 0.1 0.9 0.2 1.3 0.2 2.3 0.2 4.7 0.4 7 0.5 3.3 0.3 6.7 0.5 10 0.8 4.4 0.3 8.9 0.7 13.3 1 2.8 0.2 5.6 0.4 8.4 0.7 0.4 0 0.7 0.1 1.1 0.1 2.9 0.2 7.1 1.3 10.5 0.9 1-0.1 1.9-0.3 2.7-0.7 5.8-2.7 11.2-7.6 16.5-11.1 3.7-2.4 7.3-4.9 11-7.3 0.8-0.5 1.4-1.1 2.2-1.5 0.7-0.3 1.4-0.1 2 0.4 0.2 0.2 0.3 0.4 0.4 0.6 0.5 1.2 0.5 2.5 0.9 3.7 0.6 1.6 1.2 3.2 1.7 4.8 0.9 3.2 1.9 6.4 2.9 9.6 1.9 6.4 4 12.7 6.3 18.9 1.2 3.1 2.4 6.2 3.8 9.3 5.1 11.7 10.4 24.6 19.4 33.8 8.2 8.5 16.1 17.4 23.5 26.6 1.2 1.5 2.4 3 3.6 4.5 6.6 8.5 13.3 17.6 18.9 27.1 0.9 1.6 1.8 3.2 2.7 4.9 2.4 4.7 4.6 9.4 6.2 14.3 2.4 7 4 14.3 5.2 21.7 1.1 6.7 1.8 13.5 2.4 20.2C310.5 271.7 310.9 288.3 309.8 304.8z"/><path d="M176.8 67.5c-0.1 0-0.3 0.1-0.4 0.2 0.1 0 0.1 0 0.2 0C176.7 67.6 176.7 67.5 176.8 67.5z"/></g><ellipse id="nose-area" class="st1" cx="142.6" cy="109" rx="20.2" ry="13"/><circle id="left-eye" cx="97.3" cy="104.8" r="8.8"/><circle id="right-eye" cx="189.7" cy="113" r="9"/><g id="left-whisker2"><path d="M28.6 96.6c2.1 0.7 20 5.9 31.3 10.9"/><path d="M27.6 100.2c10.2 3.3 20.5 6.2 30.4 10.5 4.4 1.9 8.2-4.5 3.8-6.5 -10.5-4.6-21.3-7.7-32.2-11.3C25 91.4 23.1 98.7 27.6 100.2L27.6 100.2z"/></g><g id="left-whisker1"><path d="M36.5 77.5c2 1 19 8.5 29.5 15"/><path d="M34.6 80.7c9.9 4.8 20 9.2 29.5 15 4.1 2.5 7.9-4 3.8-6.5 -9.5-5.8-19.6-10.2-29.5-15C34.1 72.2 30.3 78.6 34.6 80.7L34.6 80.7z"/></g><g id="right-whisker2"><path d="M258 114.7c-2.2 0.4-20.7 2.4-32.7 5.4"/><path d="M257 111.1c-10.5 1.5-22 2.8-32.7 5.4 -4.7 1.2-2.7 8.4 2 7.2 10.8-2.6 21.7-3.8 32.7-5.4C263.8 117.6 261.8 110.4 257 111.1L257 111.1z"/></g><g id="right-whisker1"><path d="M253.5 94.6c-2.1 0.6-20.2 5.1-31.6 9.8"/><path d="M252.5 90.9c-10.6 3.1-21.3 5.7-31.6 9.8 -4.4 1.8-2.5 9 2 7.2 10.3-4.1 21-6.7 31.6-9.8C259.1 96.8 257.2 89.6 252.5 90.9L252.5 90.9z"/></g><g id="mouth"><path class="st3" d="M152.1 118.7c-2.2 4.6-3.9 11.5-10 11.4 -6.4-0.2-8.1-7.3-9-12.3 -0.1-0.8 0.2-1.5 0.8-2 0.6-0.5 1.4-0.7 2.2-0.9 1.9-0.5 3.8-1.2 5.5-2.2 0.6-0.4 1.4-0.7 2-0.3 0.2 0.2 0.4 0.4 0.5 0.6 0.6 1 1.5 1.8 2.5 2.3 1 0.5 2.1 0.8 3.1 1.2 1 0.4 2 1.1 2.5 2.1"/><path d="M150 117.5c-1.3 2.8-2.2 6.4-4.4 8.6 -3.3 3.4-7.1 0.4-8.5-3 -0.5-1.1-1.3-3.1-1.2-4.3 0.1-1.5 0.5-1.2 2-1.8 0.9-0.4 1.9-0.7 2.8-1.1 0.4-0.2 2.6-1 1.9-1.1 -0.9-0.2 1 1.4 1.3 1.6 1.6 1.4 5 1.8 6.2 3.5 1.8 2.6 6.2 0.1 4.3-2.5 -1-1.3-1.9-2.3-3.4-3 -2.1-1-3.4-1.5-5.1-3.2 -2.9-2.7-5-0.6-8.2 0.6 -2.7 1-6 1.2-6.9 4.5 -0.7 2.5 0.7 6.2 1.6 8.5 2 5 6.5 8.9 12.2 7.5 5.7-1.4 7.5-7.6 9.7-12.3C155.6 117.1 151.3 114.5 150 117.5L150 117.5z"/></g><g id="nose"><path class="st1" d="M126.1 110.9c0 0 10.2 14.7 16.1-2.7"/><path d="M122.8 112.8c2.1 3.1 5.1 6 8.7 7.2 7.6 2.5 12.1-4.6 14.3-10.7 1.7-4.5-5.6-6.5-7.2-2 -0.6 1.8-1.6 4.7-3.5 5.6 -0.8 0.4-1.5 0-2.4-0.5 -1-0.6-1.8-1.4-2.6-2.2 -0.4-0.4-0.7-0.8-1-1.2 0.3 0.3 0.4 0.6 0.1 0.1C126.6 105.1 120.1 108.9 122.8 112.8L122.8 112.8z"/><path class="st1" d="M142.2 108.3c4.1 17.9 15.8 4.4 15.8 4.4"/><path d="M138.6 109.3c1.5 6.3 5.5 13.6 13.2 11.8 3.4-0.8 6.6-3.1 8.8-5.7 3.2-3.6-2.1-9-5.3-5.3 -1.4 1.6-2.5 2.6-4.4 3.5 -0.9 0.4-1.5 0.6-2.1 0.2 -1.9-1.2-2.5-4.3-3-6.3C144.7 102.6 137.5 104.6 138.6 109.3L138.6 109.3z"/></g><g id="left-foot"><path class="st1" d="M86.7 365.5c-0.2 7.5 3.5 20.6 11.5 23.4 11.6 4.1 13.9-13.1 14.8-20.7"/><path d="M83 365.5c0 10.8 5.6 28.5 19.2 27.7 11.6-0.6 13.5-16.2 14.7-25 0.6-4.8-6.9-4.7-7.5 0 -0.6 4.6-1.4 16.5-7.3 17.5 -8.6 1.5-11.6-14.5-11.6-20.2C90.5 360.6 83 360.6 83 365.5L83 365.5z"/></g><g id="right-foot"><path class="st1" d="M183.1 367.5c0.2 7.5-3.5 20.6-11.5 23.4 -11.6 4.1-13.9-13.1-14.8-20.7"/><path d="M179.3 367.5c0 5.6-3 21.8-11.6 20.2 -5.9-1.1-6.7-12.9-7.3-17.5 -0.6-4.7-8.1-4.8-7.5 0 1.1 8.8 3 24.4 14.7 25 13.6 0.7 19.2-16.9 19.2-27.7C186.8 362.6 179.3 362.6 179.3 367.5L179.3 367.5z"/></g><g id="heart"><path class="st3" d="M177.1 16.9c-2.3-13.7-15.1-2.4-21.6 1.1 -1.5 0.9-3.2 0.5-4.5-0.6 -3.2-2.7-6.9-5.5-11-6.8 -7.1-2.2-9.4 4.4-9.2 10.4 0.3 7 5.4 11.2 10.5 15.1 4.1 3.1 8.3 6.1 12.8 8.6 0 0 0 0 0 0C164.2 38.7 179.5 30.8 177.1 16.9z"/><path d="M183.7 12.4c-2.2-6.6-8-10.7-15.1-9.5 -5.6 1-10 4.5-14.6 7.4 -5-4-11-7.8-17.3-7.6 -9.2 0.2-13.1 9.1-13.4 17.2 -0.3 9.9 5.7 16.3 13.1 22 4.6 3.5 9.4 7.1 14.5 9.8 2.8 1.5 4.4 1 7.1-0.3C171.8 42.8 189.9 31.4 183.7 12.4zM154.2 44.8C154.2 44.8 154.2 44.8 154.2 44.8c-4.5-2.4-8.8-5.5-12.8-8.5 -5.2-3.9-10.3-8.2-10.5-15.1 -0.2-6 2.1-12.6 9.2-10.4 4 1.3 7.8 4.1 11 6.8 1.3 1.1 3 1.4 4.5 0.6 6.4-3.5 19.2-14.8 21.6-1.1C179.5 30.8 164.2 38.7 154.2 44.8z"/></g></svg>